<?xml version="1.0" encoding="UTF-8"?><svg xmlns="http://www.w3.org/2000/svg" xmlns:xlink="http://www.w3.org/1999/xlink" height="1147.7" preserveAspectRatio="xMidYMid meet" version="1.0" viewBox="578.6 427.2 842.9 1147.7" width="842.9" zoomAndPan="magnify"><g><g id="change1_1"><path d="M 1421.441406 1193.839844 C 1421.441406 1403.109375 1232.75 1572.75 1000 1572.75 C 767.246094 1572.75 578.5625 1403.109375 578.5625 1193.839844 C 578.5625 1171.191406 580.773438 1149.011719 585.011719 1127.449219 C 585.046875 1127.261719 585.085938 1127.070312 585.117188 1126.878906 C 590.847656 1138.128906 648.03125 1246.71875 708.136719 1226.691406 C 708.136719 1226.691406 592.773438 1145.449219 643.140625 1007.339844 C 646.367188 998.5 649.015625 989.769531 651.144531 981.179688 C 682.4375 855.539062 604.144531 758.738281 604.144531 758.738281 C 604.144531 758.738281 710.773438 789.328125 768.53125 877.148438 C 787.238281 905.570312 800.824219 940 804 981.339844 C 804 981.339844 805.210938 926.21875 822.839844 849.929688 C 854.945312 710.949219 941.519531 501.699219 1174.410156 427.238281 C 1174.410156 427.238281 1089.101562 488.179688 1150.039062 631.988281 C 1192.941406 733.230469 1233.421875 806.699219 1247.679688 887.238281 C 1253.628906 920.910156 1255.011719 955.828125 1250.070312 994.519531 C 1250.96875 988.71875 1258.011719 945.78125 1275.210938 906.871094 C 1290.058594 873.289062 1312.480469 842.699219 1345.039062 841.621094 C 1345.039062 841.621094 1285.761719 888.71875 1372.691406 1010.589844 C 1384.601562 1027.269531 1391.691406 1044.421875 1395.050781 1061.589844 C 1416.289062 1169.761719 1289.828125 1278.679688 1289.828125 1278.679688 C 1289.828125 1278.679688 1382.609375 1270.621094 1421.039062 1177.289062 C 1421.058594 1177.769531 1421.089844 1178.25 1421.101562 1178.730469 C 1421.320312 1183.738281 1421.441406 1188.78125 1421.441406 1193.839844" fill="#e9441e"/></g><g id="change2_1"><path d="M 585.117188 1126.878906 C 585.085938 1127.070312 585.046875 1127.261719 585.011719 1127.449219 C 584.890625 1126.960938 584.769531 1126.460938 584.65625 1125.96875 C 584.695312 1126.050781 584.851562 1126.359375 585.117188 1126.878906" fill="#4fbe38"/></g><g id="change2_2"><path d="M 1421.441406 1176.320312 C 1421.441406 1176.320312 1421.339844 1177.160156 1421.101562 1178.730469 C 1421.089844 1178.25 1421.058594 1177.769531 1421.039062 1177.289062 C 1421.179688 1176.96875 1421.308594 1176.640625 1421.441406 1176.320312" fill="#4fbe38"/></g><g id="change3_1"><path d="M 1265.921875 1335.820312 C 1263.511719 1368.671875 1256.460938 1401.011719 1242.820312 1429.460938 C 1220.769531 1475.46875 1186.359375 1514.011719 1141.988281 1539.558594 C 1104.179688 1561.339844 1060.859375 1572.75 1017.238281 1572.75 C 880.5 1572.75 769.640625 1463.488281 769.640625 1328.710938 C 769.640625 1324.011719 769.769531 1319.351562 770.042969 1314.71875 C 772.671875 1268.671875 787.289062 1222.351562 802.503906 1179.058594 C 836.234375 1083.050781 765.59375 1028.558594 765.59375 1028.558594 C 818.410156 1047.941406 853.867188 1092.769531 875.011719 1128.921875 C 879.007812 1135.78125 882.5 1142.308594 885.496094 1148.308594 C 893.488281 1164.28125 897.976562 1176.410156 899.351562 1180.308594 C 895.328125 1168.46875 891.929688 1157.089844 889.089844 1146.191406 C 887.015625 1138.28125 885.222656 1130.601562 883.703125 1123.179688 C 861.15625 1013.941406 894.617188 958.5 894.617188 958.5 C 884.238281 1029.859375 924.457031 1078.648438 924.457031 1078.648438 C 879.046875 879.628906 1069.761719 797.628906 1069.761719 797.628906 C 1069.761719 797.628906 978.945312 953.308594 1080.140625 1050.621094 C 1100.480469 1070.179688 1116.320312 1090.589844 1128.640625 1110.699219 C 1138.328125 1126.519531 1145.839844 1142.160156 1151.648438 1157.078125 C 1175.210938 1217.511719 1170.960938 1265.980469 1170.960938 1265.980469 C 1186.171875 1244.609375 1194.28125 1221.390625 1197.878906 1198.550781 C 1199.710938 1186.921875 1200.378906 1175.398438 1200.210938 1164.28125 C 1200.199219 1163.679688 1200.191406 1163.070312 1200.171875 1162.46875 C 1198.980469 1109.628906 1179.390625 1066.300781 1178.75 1064.929688 L 1178.738281 1064.890625 C 1178.738281 1064.890625 1178.769531 1064.910156 1178.800781 1064.949219 C 1224.96875 1110.738281 1251.621094 1177.910156 1261.511719 1241.019531 C 1266.210938 1271 1268.289062 1303.648438 1265.921875 1335.820312" fill="#f68517"/></g><g id="change4_1"><path d="M 888.179688 1459.488281 C 892.671875 1477.960938 899.75 1495.699219 910.210938 1510.609375 C 927.125 1534.710938 950.375 1553.378906 978.054688 1563.71875 C 1001.640625 1572.53125 1027.390625 1574.921875 1052.21875 1570.78125 C 1130.058594 1557.808594 1182.808594 1485.101562 1170.019531 1408.371094 C 1169.578125 1405.699219 1169.058594 1403.058594 1168.46875 1400.449219 C 1162.601562 1374.480469 1149.890625 1349.5 1137.121094 1326.300781 C 1108.808594 1274.839844 1143.859375 1237.121094 1143.859375 1237.121094 C 1115.628906 1253.171875 1099.699219 1282.050781 1091.089844 1304.640625 C 1089.460938 1308.910156 1088.101562 1312.96875 1086.960938 1316.660156 C 1083.929688 1326.511719 1082.519531 1333.839844 1082.109375 1336.199219 C 1083.269531 1329.070312 1084.128906 1322.269531 1084.710938 1315.800781 C 1085.148438 1311.101562 1085.441406 1306.558594 1085.601562 1302.191406 C 1088.070312 1237.859375 1063.769531 1209.480469 1063.769531 1209.480469 C 1076.441406 1249.109375 1058.179688 1280.710938 1058.179688 1280.710938 C 1065.148438 1163.109375 948.804688 1134.511719 948.804688 1134.511719 C 948.804688 1134.511719 1015.269531 1214.519531 966.890625 1279.511719 C 957.164062 1292.578125 950.082031 1305.699219 944.980469 1318.308594 C 940.964844 1328.238281 938.171875 1337.859375 936.277344 1346.898438 C 928.597656 1383.539062 935.617188 1410.71875 935.617188 1410.71875 C 924.929688 1400 918.109375 1387.550781 913.898438 1374.898438 C 911.753906 1368.441406 910.277344 1361.949219 909.316406 1355.601562 C 909.269531 1355.261719 909.21875 1354.921875 909.167969 1354.570312 C 904.835938 1324.378906 911.878906 1297.851562 912.109375 1297.011719 L 912.113281 1296.988281 C 912.113281 1296.988281 912.101562 1297 912.082031 1297.03125 C 890.148438 1327.46875 881.347656 1368.238281 881.703125 1405.101562 C 881.871094 1422.621094 883.78125 1441.398438 888.179688 1459.488281" fill="#f5f015"/></g></g></svg>