<?xml version="1.0" encoding="UTF-8" standalone="no"?><svg xmlns="http://www.w3.org/2000/svg" xmlns:xlink="http://www.w3.org/1999/xlink" fill="#000000" height="2196" preserveAspectRatio="xMidYMid meet" version="1" viewBox="0.0 0.0 2196.0 2196.0" width="2196" zoomAndPan="magnify"><g fill="#000000" id="change1_1"><path d="M 1350.835938 1384.488281 C 1330.042969 1444.246094 1281.773438 1473.9375 1222.644531 1480.148438 C 1151.785156 1487.589844 1080.125 1487.316406 1008.824219 1490.65625 C 993.566406 1491.378906 990.925781 1483.167969 991.054688 1470.246094 C 991.488281 1425.699219 991.222656 1381.136719 991.222656 1336.578125 C 991.71875 1336.578125 992.214844 1336.578125 992.714844 1336.578125 C 992.714844 1288.707031 993.039062 1240.835938 992.527344 1192.976562 C 992.363281 1177.347656 1000.042969 1171.527344 1014.054688 1172.316406 C 1085.765625 1176.355469 1158.210938 1175.585938 1228.984375 1186.078125 C 1332.933594 1201.464844 1384.210938 1288.585938 1350.835938 1384.488281 Z M 991.160156 715.554688 C 993.199219 714.019531 994.464844 712.21875 995.796875 712.175781 C 1064.644531 709.839844 1133.683594 706.003906 1201.21875 724.191406 C 1264.617188 741.261719 1297.242188 782.246094 1297.386719 843.054688 C 1297.542969 910.398438 1266.320312 951.960938 1200.5625 969.164062 C 1132.183594 987.03125 1062.433594 980.613281 991.160156 981.171875 C 991.160156 890.71875 991.160156 802.882812 991.160156 715.554688 Z M 1421.09375 1088.976562 C 1405.417969 1081.417969 1389.394531 1074.558594 1370.792969 1066.140625 C 1378.097656 1061.75 1382.257812 1059.082031 1386.546875 1056.679688 C 1534.648438 973.808594 1566.394531 784.636719 1453.871094 657.757812 C 1400.378906 597.4375 1333.378906 564.539062 1253.578125 558.667969 C 1230.183594 556.957031 1221.945312 549.195312 1222.890625 525.179688 C 1224.746094 478.390625 1223.433594 431.480469 1223.433594 383.648438 C 1182.328125 383.648438 1144.292969 383.648438 1103.273438 383.648438 C 1103.273438 438.851562 1103.273438 492.1875 1103.273438 547.472656 C 1081.144531 547.472656 1061.964844 547.617188 1042.792969 547.449219 C 991.742188 546.992188 998.074219 553.417969 997.707031 501.09375 C 997.433594 461.945312 997.65625 422.808594 997.65625 383.636719 C 956.078125 383.636719 918.707031 383.636719 879.167969 383.636719 C 879.167969 429.1875 877.910156 472.898438 879.671875 516.484375 C 880.625 540.144531 874.550781 548.648438 849.308594 548.027344 C 778.703125 546.304688 708.023438 547.382812 637.375 547.492188 C 628.457031 547.503906 619.535156 548.292969 610.753906 548.726562 C 610.753906 603.730469 610.753906 656.136719 610.753906 710.449219 C 648.984375 710.449219 685.082031 710.25 721.179688 710.507812 C 756.917969 710.75 765.859375 719.769531 765.925781 755.359375 C 766.132812 870.496094 766.332031 985.628906 766.324219 1100.765625 C 766.316406 1213.464844 766.015625 1326.167969 765.914062 1438.867188 C 765.871094 1483.296875 759.253906 1490.199219 715.125 1490.378906 C 680.210938 1490.519531 645.292969 1490.398438 610.835938 1490.398438 C 610.835938 1547.636719 610.835938 1600.066406 610.835938 1654.367188 C 690.375 1654.367188 767.691406 1654.359375 845.011719 1654.378906 C 878.925781 1654.386719 878.949219 1654.417969 878.972656 1688.757812 C 878.996094 1729.660156 878.976562 1770.566406 878.976562 1812.359375 C 920.285156 1812.359375 957.609375 1812.359375 997.804688 1812.359375 C 997.804688 1801.667969 997.808594 1792.609375 997.804688 1783.546875 C 997.78125 1748.21875 998.421875 1712.878906 997.441406 1677.578125 C 996.960938 1660.207031 1002.773438 1653.066406 1020.582031 1654.148438 C 1039.023438 1655.257812 1057.714844 1655.679688 1076.042969 1653.910156 C 1097.792969 1651.796875 1105.8125 1658.367188 1104.835938 1681.449219 C 1103.003906 1724.808594 1104.304688 1768.296875 1104.304688 1811.890625 C 1145.746094 1811.890625 1183.773438 1811.890625 1224.746094 1811.890625 C 1224.746094 1756.339844 1224.746094 1702.917969 1224.746094 1648.738281 C 1297.441406 1641.1875 1365.589844 1626.207031 1427.988281 1593.027344 C 1529.300781 1539.148438 1586.085938 1454.445312 1585.242188 1339.027344 C 1584.40625 1222.585938 1525.832031 1139.457031 1421.09375 1088.976562" fill="inherit"/><path d="M 1098 2019.910156 C 589.660156 2019.910156 176.097656 1606.339844 176.097656 1098 C 176.097656 589.660156 589.660156 176.097656 1098 176.097656 C 1606.339844 176.097656 2019.902344 589.660156 2019.902344 1098 C 2019.902344 1606.339844 1606.339844 2019.910156 1098 2019.910156 Z M 1874.402344 321.597656 C 1667.019531 114.21875 1391.292969 0 1098 0 C 804.714844 0 528.980469 114.21875 321.597656 321.597656 C 114.214844 528.980469 0 804.71875 0 1098 C 0 1391.289062 114.214844 1667.019531 321.597656 1874.398438 C 528.980469 2081.789062 804.714844 2196 1098 2196 C 1391.292969 2196 1667.019531 2081.789062 1874.402344 1874.398438 C 2081.796875 1667.019531 2196 1391.289062 2196 1098 C 2196 804.71875 2081.796875 528.980469 1874.402344 321.597656" fill="inherit"/></g></svg>